<svg width="796" height="202" viewBox="0 0 796 202" fill="none" xmlns="http://www.w3.org/2000/svg">
<g clip-path="url(#clip0_11_6912)">
<path d="M190.604 180.82L172.942 163.296V24.798H160.413V150.636L42.7605 33.64L21.4207 12.4594H190.604V180.82ZM12.5695 189.662V21.2612L30.191 38.8247V177.122H42.7605V51.2839L181.793 189.501L12.5695 189.662ZM-0.0808105 201.96H203.052V-0.0400391H-0.0808105V201.96Z" fill="#E1B17C"/>
<path d="M94.4126 164.663H121.128L98.8988 142.598L90.3305 151.118L64.1407 177.162H55.2896V81.5479L90.0072 116.112L81.156 124.954L67.8186 111.691V155.861L81.4389 142.276L90.0072 133.756L98.8988 124.954L107.75 133.756L151.4 177.162H81.8835L94.4126 164.663Z" fill="#E1B17C"/>
<path d="M135.314 90.5102L82.0047 37.5385H135.314V90.5102ZM51.7329 25.0391L147.843 120.533V25.0391H51.7329Z" fill="#E1B17C"/>
<path d="M303.567 90.751C302.816 89.456 301.829 88.3112 300.657 87.375C299.556 86.4315 298.395 85.559 297.181 84.7626C295.845 83.9142 294.405 83.2389 292.897 82.7531L290.432 81.7081C289.812 81.4684 289.177 81.2671 288.532 81.1052L283.884 79.5378C280.276 78.6296 276.819 77.2082 273.619 75.3177C272.787 74.7242 272.114 73.9384 271.656 73.0281C271.198 72.1178 270.97 71.1104 270.992 70.0929C270.967 69.1515 271.172 68.2182 271.587 67.3717C272.002 66.5253 272.615 65.7906 273.376 65.2298C275.279 63.8768 277.588 63.2104 279.924 63.3408C282.723 63.2758 285.475 64.0758 287.798 65.6306C290.122 67.1854 291.903 69.4184 292.897 72.022L304.133 65.5915C302.063 60.9553 298.65 57.0378 294.331 54.339C290.012 51.6402 284.982 50.2826 279.883 50.4395C274.115 50.2889 268.492 52.2481 264.08 55.9456C261.927 57.6959 260.217 59.9239 259.087 62.4507C257.957 64.9775 257.438 67.7326 257.573 70.4948C257.4 73.1511 257.893 75.8085 259.008 78.2286C260.122 80.6488 261.824 82.7558 263.959 84.3607C265.943 85.7695 268.07 86.9684 270.305 87.9377C272.817 88.9976 275.396 89.897 278.024 90.6305C282.002 91.6032 285.844 93.0611 289.462 94.9711C290.387 95.494 291.165 96.2399 291.724 97.1401C292.283 98.0403 292.606 99.0658 292.662 100.122C292.719 101.179 292.507 102.233 292.047 103.187C291.586 104.141 290.892 104.964 290.028 105.582C287.626 107.115 284.791 107.834 281.944 107.631C278.554 107.879 275.178 106.999 272.346 105.129C269.514 103.259 267.388 100.506 266.303 97.3022L254.865 103.934C256.648 108.909 260.047 113.152 264.525 115.991C269.635 119.1 275.554 120.638 281.54 120.412C287.913 120.69 294.184 118.757 299.283 114.946C301.528 113.183 303.321 110.917 304.516 108.332C305.71 105.747 306.271 102.918 306.154 100.075C306.17 98.2681 305.925 96.468 305.426 94.73C305.013 93.3185 304.415 91.9672 303.648 90.7109" fill="#46413F"/>
<path d="M355.583 100.759C353.74 102.679 351.508 104.188 349.035 105.186C346.561 106.184 343.903 106.648 341.235 106.546H327.696V64.5062H341.276C343.953 64.4096 346.621 64.8873 349.096 65.9067C351.572 66.9261 353.798 68.4635 355.623 70.4143C359.407 74.5248 361.398 79.9588 361.16 85.5261C361.391 91.1285 359.403 96.5974 355.623 100.759H355.583ZM341.276 51.8059H314.318V119.287H341.276C345.626 119.386 349.948 118.571 353.96 116.895C357.971 115.218 361.582 112.719 364.555 109.56C370.666 103 374.06 94.3877 374.06 85.4458C374.06 76.5039 370.666 67.8916 364.555 61.3312C361.588 58.1641 357.979 55.6594 353.966 53.9828C349.952 52.3061 345.627 51.4957 341.276 51.605" fill="#46413F"/>
<path d="M422.715 92.9617L393.615 51.8062H383.43V119.287H396.808V78.0107L425.907 119.287H436.092V51.8062H422.715V92.9617Z" fill="#46413F"/>
<path d="M505.609 94.8107H526.181C525.088 98.6689 522.653 102.016 519.31 104.256C515.449 106.64 510.958 107.817 506.417 107.632C503.328 107.778 500.24 107.306 497.338 106.243C494.436 105.18 491.778 103.547 489.523 101.442C485.5 97.1312 483.265 91.4677 483.265 85.5868C483.265 79.706 485.5 74.0425 489.523 69.7315C491.61 67.5908 494.131 65.9145 496.917 64.813C499.704 63.7115 502.694 63.2099 505.689 63.3411C509.502 63.2889 513.268 64.187 516.642 65.9535C519.658 67.479 522.179 69.8193 523.917 72.7057L535.355 66.1545C532.424 61.3205 528.235 57.363 523.23 54.7C517.886 51.8215 511.888 50.3547 505.811 50.4398C501.126 50.3591 496.472 51.2125 492.124 52.9497C487.776 54.6869 483.822 57.2727 480.495 60.5544C477.169 63.8361 474.537 67.7473 472.756 72.057C470.974 76.3667 470.079 80.9877 470.123 85.6472C470.047 90.277 470.925 94.8732 472.705 99.1521C474.484 103.431 477.127 107.302 480.47 110.525C483.91 113.875 487.997 116.496 492.485 118.23C496.972 119.964 501.767 120.774 506.579 120.613C511.015 120.816 515.448 120.13 519.613 118.598C523.779 117.065 527.593 114.716 530.828 111.691C533.938 108.656 536.372 105.006 537.974 100.977C539.575 96.9474 540.308 92.6285 540.124 88.2997V83.1151H506.094L505.609 94.8107Z" fill="#46413F"/>
<path d="M584.703 78.0107C584.229 79.1973 583.56 80.2975 582.723 81.2661C581.89 82.1803 580.871 82.9066 579.732 83.3962C578.636 83.9242 577.434 84.199 576.216 84.2001H562.434V64.1046H576.216C577.431 64.0931 578.633 64.3541 579.732 64.8682C580.854 65.3862 581.869 66.1087 582.723 66.9983C584.477 68.9245 585.443 71.4333 585.431 74.0317C585.461 75.4063 585.213 76.7729 584.703 78.0508V78.0107ZM595.212 85.8479C597.579 82.4189 598.834 78.3517 598.809 74.1925C598.803 71.2493 598.215 68.336 597.076 65.6194C595.937 62.9027 594.271 60.436 592.172 58.3604C590.074 56.2849 587.584 54.6412 584.846 53.5234C582.108 52.4057 579.176 51.8358 576.216 51.8463H549.056V119.327H562.434V95.8956H572.619L586.28 119.327H600.749L585.714 93.8861C589.57 92.1368 592.859 89.3532 595.212 85.8479Z" fill="#46413F"/>
<path d="M655.553 101.442C651.348 105.411 645.771 107.624 639.973 107.624C634.175 107.624 628.598 105.411 624.392 101.442C620.344 97.1199 618.093 91.4328 618.093 85.5263C618.093 79.6197 620.344 73.9327 624.392 69.6107C628.584 65.6141 634.166 63.3828 639.973 63.3828C645.78 63.3828 651.362 65.6141 655.553 69.6107C659.584 73.9415 661.823 79.6252 661.823 85.5263C661.823 91.4273 659.584 97.1111 655.553 101.442ZM639.912 50.4395C635.175 50.2801 630.455 51.0702 626.032 52.7628C621.609 54.4553 617.573 57.0156 614.166 60.2913C610.758 63.5671 608.049 67.4912 606.198 71.8299C604.347 76.1687 603.394 80.8334 603.394 85.5464C603.394 90.2593 604.347 94.9241 606.198 99.2629C608.049 103.602 610.758 107.526 614.166 110.801C617.573 114.077 621.609 116.637 626.032 118.33C630.455 120.023 635.175 120.813 639.912 120.653C644.552 120.722 649.159 119.861 653.457 118.121C657.756 116.381 661.657 113.797 664.93 110.525C669.894 105.609 673.278 99.3373 674.653 92.5057C676.027 85.6741 675.33 78.5904 672.65 72.1534C669.97 65.7163 665.427 60.216 659.599 56.3501C653.77 52.4843 646.918 50.4271 639.912 50.4395Z" fill="#46413F"/>
<path d="M722.038 96.1368C722.121 97.6672 721.896 99.1987 721.376 100.641C720.855 102.084 720.05 103.408 719.007 104.537C716.242 106.539 712.909 107.618 709.489 107.618C706.068 107.618 702.736 106.539 699.971 104.537C698.928 103.408 698.122 102.084 697.602 100.641C697.081 99.1987 696.856 97.6672 696.939 96.1368V51.9267H683.562V97.3426C683.425 100.538 684.003 103.724 685.254 106.671C686.505 109.618 688.398 112.252 690.796 114.384C696.139 118.503 702.708 120.739 709.468 120.739C716.229 120.739 722.798 118.503 728.141 114.384C730.551 112.259 732.455 109.628 733.713 106.68C734.971 103.732 735.553 100.542 735.416 97.3426V51.8062H722.038V96.1368Z" fill="#46413F"/>
<path d="M781.895 78.4927C781.437 79.6966 780.751 80.8018 779.874 81.7482C778.989 82.6756 777.914 83.4021 776.721 83.8784C775.446 84.4253 774.069 84.6991 772.68 84.6822H760.757V64.2651H772.68C774.004 64.2204 775.322 64.4552 776.548 64.954C777.774 65.4528 778.88 66.2042 779.793 67.1589C780.715 68.1366 781.433 69.2866 781.905 70.5423C782.376 71.7979 782.593 73.1342 782.541 74.4736C782.556 75.847 782.309 77.2106 781.814 78.4927H781.895ZM789.25 58.3972C787.074 56.2644 784.49 54.586 781.651 53.461C778.812 52.3359 775.776 51.7869 772.72 51.8461H747.622V119.327H760.999V97.1413H772.922C775.978 97.2074 779.017 96.6616 781.857 95.5361C784.697 94.4107 787.28 92.7287 789.453 90.5903C791.638 88.5252 793.364 86.0276 794.52 83.2587C795.675 80.4898 796.234 77.5109 796.162 74.5139C796.222 71.5221 795.661 68.55 794.514 65.7838C793.366 63.0175 791.657 60.5166 789.493 58.4375" fill="#46413F"/>
<path d="M268.203 139.784C269.767 139.762 271.311 140.135 272.689 140.87C273.98 141.545 275.047 142.578 275.761 143.844L279.52 141.754C278.96 140.837 278.281 140 277.499 139.262C276.689 138.517 275.793 137.869 274.831 137.333C273.836 136.8 272.776 136.395 271.679 136.127C270.541 135.853 269.374 135.718 268.203 135.725C266.382 135.66 264.566 135.961 262.864 136.61C261.163 137.259 259.611 138.243 258.301 139.503C257.007 140.688 255.978 142.131 255.282 143.737C254.585 145.344 254.237 147.078 254.259 148.827C254.239 150.582 254.588 152.322 255.284 153.935C255.98 155.548 257.008 156.998 258.301 158.192C260.516 160.168 263.282 161.429 266.233 161.81C269.185 162.19 272.183 161.671 274.831 160.322C276.786 159.305 278.412 157.758 279.52 155.861L275.761 153.811C275.064 155.075 274.01 156.109 272.73 156.785C271.346 157.547 269.785 157.935 268.203 157.911C266.944 157.952 265.689 157.746 264.51 157.305C263.331 156.864 262.251 156.195 261.332 155.338C260.422 154.485 259.706 153.449 259.232 152.298C258.758 151.147 258.537 149.909 258.584 148.667C258.552 147.461 258.768 146.261 259.22 145.141C259.672 144.021 260.35 143.005 261.211 142.156C263.073 140.439 265.544 139.529 268.082 139.624" fill="#46413F"/>
<path d="M281.015 147.18H287.199V161.488H291.281V147.18H297.424V143.442H281.015V147.18Z" fill="#46413F"/>
<path d="M314.48 156.705C313.33 157.771 311.807 158.348 310.236 158.312C308.653 158.346 307.118 157.77 305.952 156.705C305.414 156.181 304.987 155.555 304.696 154.865C304.404 154.175 304.254 153.434 304.254 152.686C304.245 151.936 304.391 151.192 304.683 150.501C304.975 149.809 305.407 149.185 305.952 148.667C306.521 148.125 307.193 147.7 307.928 147.417C308.664 147.135 309.448 146.999 310.236 147.019C311.018 147 311.796 147.136 312.524 147.419C313.253 147.702 313.917 148.126 314.48 148.667C315.025 149.185 315.457 149.809 315.749 150.501C316.041 151.192 316.187 151.936 316.177 152.686C316.177 153.434 316.027 154.175 315.736 154.865C315.444 155.555 315.017 156.181 314.48 156.705ZM310.883 143.08C309.606 143.006 308.331 143.251 307.174 143.791C306.016 144.332 305.013 145.151 304.254 146.175V143.522H300.213V168.762H304.254V158.955C305.022 159.967 306.028 160.774 307.184 161.307C308.34 161.84 309.61 162.081 310.883 162.01C312.118 162.037 313.345 161.808 314.486 161.338C315.627 160.867 316.658 160.165 317.511 159.277C319.276 157.476 320.264 155.06 320.264 152.545C320.264 150.03 319.276 147.614 317.511 145.813C316.654 144.927 315.624 144.224 314.484 143.747C313.344 143.27 312.119 143.03 310.883 143.04" fill="#46413F"/>
<path d="M337.032 156.705C335.953 157.759 334.503 158.35 332.99 158.353C331.48 158.342 330.032 157.752 328.949 156.705C327.911 155.621 327.332 154.182 327.332 152.686C327.332 151.189 327.911 149.75 328.949 148.667C330.032 147.62 331.48 147.03 332.99 147.019C334.503 147.021 335.953 147.613 337.032 148.667C338.07 149.75 338.649 151.189 338.649 152.686C338.649 154.182 338.07 155.621 337.032 156.705ZM332.99 143.12C331.688 143.084 330.391 143.308 329.177 143.777C327.962 144.246 326.854 144.952 325.918 145.853C324.998 146.724 324.266 147.772 323.766 148.932C323.265 150.093 323.008 151.343 323.008 152.605C323.008 153.868 323.265 155.118 323.766 156.278C324.266 157.439 324.998 158.487 325.918 159.357C326.854 160.259 327.962 160.965 329.177 161.434C330.391 161.903 331.688 162.126 332.99 162.09C334.287 162.13 335.579 161.908 336.788 161.439C337.996 160.969 339.097 160.261 340.023 159.357C340.942 158.487 341.674 157.439 342.175 156.278C342.675 155.118 342.933 153.868 342.933 152.605C342.933 151.343 342.675 150.093 342.175 148.932C341.674 147.772 340.942 146.724 340.023 145.853C339.097 144.95 337.996 144.242 336.788 143.772C335.579 143.302 334.287 143.081 332.99 143.12Z" fill="#46413F"/>
<path d="M350.491 154.896V143.442H346.49V161.488H349.602L359.261 149.993V161.488H363.262V143.442H360.15L350.491 154.896Z" fill="#46413F"/>
<path d="M366.01 147.18H372.154V161.488H376.236V147.18H382.379V143.442H366.01V147.18Z" fill="#46413F"/>
<path d="M387.593 150.918C387.794 149.634 388.471 148.472 389.492 147.662C390.579 146.866 391.902 146.455 393.251 146.497C394.519 146.454 395.762 146.852 396.767 147.622C397.794 148.445 398.472 149.621 398.667 150.918H387.593ZM393.292 142.879C391.974 142.821 390.659 143.033 389.428 143.503C388.197 143.974 387.077 144.692 386.138 145.612C384.336 147.419 383.325 149.86 383.325 152.405C383.325 154.949 384.336 157.39 386.138 159.197C388.173 161.013 390.842 161.965 393.574 161.849C395.154 161.919 396.726 161.586 398.14 160.882C399.555 160.179 400.765 159.129 401.658 157.83L398.303 155.982C397.742 156.721 397.005 157.31 396.159 157.696C395.312 158.082 394.382 158.252 393.453 158.192C392.026 158.247 390.617 157.868 389.412 157.107C388.344 156.347 387.607 155.212 387.35 153.932H402.385V153.007C402.385 152.766 402.385 152.525 402.385 152.324C402.405 151.077 402.175 149.838 401.711 148.679C401.246 147.52 400.555 146.464 399.677 145.572C398.806 144.66 397.751 143.941 396.581 143.463C395.41 142.986 394.152 142.759 392.887 142.799" fill="#46413F"/>
<path d="M407.073 153.69C407.199 154.905 406.899 156.126 406.225 157.147C405.886 157.48 405.465 157.719 405.003 157.839C404.542 157.959 404.057 157.956 403.598 157.83V161.487C404.58 161.651 405.587 161.603 406.549 161.347C407.511 161.09 408.407 160.631 409.175 160C409.909 159.172 410.464 158.202 410.805 157.151C411.146 156.1 411.265 154.99 411.156 153.891V147.179H417.46V161.487H421.502V143.401H407.073V153.69Z" fill="#46413F"/>
<path d="M436.416 157.267C435.856 157.745 435.132 157.99 434.395 157.95H430.353V153.047H434.395C435.129 153.027 435.846 153.27 436.416 153.73C436.672 153.949 436.878 154.221 437.019 154.526C437.16 154.831 437.233 155.163 437.233 155.499C437.233 155.835 437.16 156.167 437.019 156.472C436.878 156.777 436.672 157.048 436.416 157.267ZM434.355 149.551H430.313V143.401H426.271V161.487H434.355C436.155 161.574 437.92 160.97 439.285 159.799C439.897 159.26 440.387 158.598 440.722 157.857C441.057 157.115 441.231 156.312 441.231 155.499C441.231 154.686 441.057 153.882 440.722 153.141C440.387 152.4 439.897 151.738 439.285 151.198C437.906 150.057 436.147 149.469 434.355 149.551Z" fill="#46413F"/>
<path d="M457.351 150.636H448.743V143.442H444.661V161.488H448.743V154.293H457.351V161.488H461.433V143.442H457.351V150.636Z" fill="#46413F"/>
<path d="M479.378 156.705C478.209 157.739 476.699 158.31 475.135 158.31C473.57 158.31 472.06 157.739 470.891 156.705C470.353 156.181 469.926 155.555 469.635 154.865C469.343 154.175 469.193 153.434 469.193 152.686C469.184 151.936 469.33 151.192 469.622 150.5C469.914 149.809 470.346 149.185 470.891 148.666C472.047 147.607 473.562 147.019 475.135 147.019C476.707 147.019 478.222 147.607 479.378 148.666C479.923 149.185 480.355 149.809 480.647 150.5C480.939 151.192 481.085 151.936 481.076 152.686C481.076 153.434 480.926 154.175 480.634 154.865C480.343 155.555 479.916 156.181 479.378 156.705ZM481.076 146.134C480.312 145.129 479.312 144.325 478.164 143.793C477.015 143.26 475.753 143.016 474.488 143.08C473.253 143.053 472.025 143.281 470.884 143.752C469.743 144.223 468.713 144.924 467.86 145.813C466.962 146.692 466.255 147.744 465.782 148.906C465.309 150.067 465.081 151.312 465.111 152.565C465.09 153.816 465.323 155.059 465.795 156.219C466.267 157.379 466.969 158.433 467.86 159.317C468.713 160.206 469.743 160.907 470.884 161.378C472.025 161.849 473.253 162.077 474.488 162.05C475.759 162.128 477.03 161.885 478.182 161.344C479.333 160.803 480.329 159.981 481.076 158.955V161.608H485.117V143.522H481.076V146.134Z" fill="#46413F"/>
<path d="M500.516 146.938V152.043H496.474C495.729 152.058 495.001 151.817 494.413 151.359C494.141 151.137 493.925 150.853 493.785 150.532C493.644 150.21 493.583 149.86 493.605 149.511C493.583 149.155 493.644 148.799 493.784 148.471C493.925 148.143 494.14 147.852 494.413 147.622C495.001 147.164 495.729 146.923 496.474 146.938H500.516ZM491.261 145.17C490.673 145.713 490.208 146.373 489.894 147.107C489.581 147.841 489.427 148.633 489.442 149.43C489.448 150.678 489.859 151.89 490.614 152.887C491.409 153.922 492.512 154.681 493.767 155.057L488.674 161.487H493.484L498.253 155.419H500.516V161.487H504.558V143.401H496.151C494.364 143.337 492.623 143.972 491.301 145.17" fill="#46413F"/>
<path d="M535.032 143.442H530.06L522.745 151.4V143.442H518.663V161.488H522.745V153.128L530.465 161.488H535.355L526.746 152.284L535.032 143.442Z" fill="#46413F"/>
<path d="M549.581 156.705C548.498 157.752 547.05 158.342 545.54 158.353C544.028 158.35 542.577 157.759 541.498 156.705C540.46 155.621 539.882 154.182 539.882 152.686C539.882 151.189 540.46 149.75 541.498 148.667C542.577 147.613 544.028 147.021 545.54 147.019C547.05 147.03 548.498 147.62 549.581 148.667C550.619 149.75 551.198 151.189 551.198 152.686C551.198 154.182 550.619 155.621 549.581 156.705ZM545.54 143.12C544.243 143.081 542.951 143.302 541.743 143.772C540.534 144.242 539.434 144.95 538.507 145.853C537.588 146.724 536.856 147.772 536.356 148.932C535.855 150.093 535.597 151.343 535.597 152.605C535.597 153.868 535.855 155.118 536.356 156.278C536.856 157.439 537.588 158.487 538.507 159.357C539.434 160.261 540.534 160.969 541.743 161.439C542.951 161.908 544.243 162.13 545.54 162.09C546.842 162.126 548.139 161.903 549.354 161.434C550.568 160.965 551.676 160.259 552.613 159.357C553.522 158.481 554.245 157.431 554.739 156.271C555.232 155.111 555.487 153.865 555.487 152.605C555.487 151.346 555.232 150.099 554.739 148.939C554.245 147.779 553.522 146.73 552.613 145.853C551.676 144.952 550.568 144.246 549.354 143.777C548.139 143.308 546.842 143.084 545.54 143.12Z" fill="#46413F"/>
<path d="M568.779 151.761L563.323 143.442H559.12V161.488H563.121V149.631L568.497 157.87H568.982L574.397 149.591V161.488H578.399V143.442H574.236L568.779 151.761Z" fill="#46413F"/>
<path d="M583.087 161.488H587.169V147.099H595.778V161.488H599.86V143.442H583.087V161.488Z" fill="#46413F"/>
<path d="M617.845 156.705C616.669 157.741 615.152 158.314 613.581 158.314C612.009 158.314 610.492 157.741 609.317 156.705C608.779 156.181 608.352 155.555 608.061 154.865C607.769 154.175 607.619 153.434 607.619 152.686C607.61 151.936 607.756 151.192 608.048 150.5C608.34 149.809 608.772 149.185 609.317 148.666C610.48 147.604 612.002 147.015 613.581 147.015C615.16 147.015 616.681 147.604 617.845 148.666C618.39 149.185 618.822 149.809 619.114 150.5C619.406 151.192 619.552 151.936 619.542 152.686C619.542 153.434 619.392 154.175 619.101 154.865C618.809 155.555 618.382 156.181 617.845 156.705ZM619.542 146.134C618.772 145.126 617.765 144.32 616.61 143.788C615.454 143.255 614.186 143.012 612.914 143.08C611.679 143.057 610.454 143.289 609.313 143.759C608.173 144.229 607.142 144.928 606.286 145.813C605.388 146.692 604.681 147.744 604.208 148.906C603.735 150.067 603.507 151.312 603.537 152.565C603.516 153.816 603.749 155.059 604.221 156.219C604.693 157.379 605.395 158.433 606.286 159.317C607.142 160.202 608.173 160.901 609.313 161.371C610.454 161.841 611.679 162.072 612.914 162.05C614.19 162.124 615.465 161.879 616.623 161.339C617.78 160.799 618.784 159.979 619.542 158.955V161.608H623.584V143.522H619.542V146.134Z" fill="#46413F"/>
<path d="M641.044 150.636H632.395V143.442H628.353V161.488H632.395V154.293H641.044V161.488H645.126V143.442H641.044V150.636Z" fill="#46413F"/>
<path d="M653.815 154.896V143.442H649.814V161.488H652.967L662.626 149.993V161.488H666.627V143.442H663.475L653.815 154.896Z" fill="#46413F"/>
<path d="M681.945 152.043H677.903C677.158 152.058 676.43 151.817 675.842 151.36C675.565 151.139 675.344 150.857 675.196 150.536C675.049 150.215 674.979 149.864 674.993 149.511C674.976 149.158 675.044 148.805 675.192 148.484C675.339 148.162 675.562 147.88 675.842 147.662C676.417 147.178 677.15 146.92 677.903 146.939H681.945V152.043ZM677.54 143.402C675.751 143.328 674.007 143.964 672.69 145.17C672.097 145.711 671.625 146.37 671.305 147.104C670.984 147.838 670.823 148.63 670.831 149.43C670.833 150.685 671.26 151.903 672.043 152.887C672.822 153.939 673.931 154.703 675.196 155.057L670.103 161.488H674.872L679.682 155.419H681.945V161.488H685.987V143.402H677.54Z" fill="#46413F"/>
</g>
<defs>
<clipPath id="clip0_11_6912">
<rect width="796" height="202" fill="white"/>
</clipPath>
</defs>
</svg>
