<svg width="353" height="354" viewBox="0 0 353 354" fill="none" xmlns="http://www.w3.org/2000/svg">
<circle cx="176.5" cy="176.5" r="176.5" transform="rotate(-90 176.5 176.5)" fill="#FFD760"/>
<path d="M176.5 1.00006C212.363 1.00006 247.376 11.9251 276.875 32.3204C306.374 52.7156 328.96 81.6133 341.626 115.166C354.292 148.718 356.436 185.332 347.774 220.133C339.111 254.935 320.052 286.271 293.135 309.971C266.218 333.67 232.721 348.607 197.103 352.793C161.485 356.98 125.436 350.216 93.7581 333.404C62.0798 316.591 36.2747 290.528 19.7789 258.683C3.28317 226.839 -3.12045 190.725 1.42074 155.151L176.5 177.5L176.5 1.00006Z" fill="#5ACD66"/>
<path d="M176.5 5.50636e-05C203.691 5.88451e-05 230.515 6.28253 254.878 18.3573C279.241 30.4321 300.485 47.9726 316.952 69.6105C333.42 91.2483 344.665 116.398 349.811 143.098C354.956 169.798 353.864 197.326 346.618 223.534C339.372 249.742 326.169 273.921 308.038 294.186C289.908 314.45 267.34 330.252 242.097 340.358C216.853 350.463 189.616 354.6 162.51 352.445C135.404 350.289 109.163 341.901 85.8338 327.933L176.5 176.5L176.5 5.50636e-05Z" fill="#DB524E"/>
</svg>
