<svg width="293" height="73" viewBox="0 0 293 73" fill="none" xmlns="http://www.w3.org/2000/svg">
<g clip-path="url(#clip0_12_1034)">
<path d="M70.1593 65.3457L63.6581 59.0131V8.96171H59.0463V54.4379L15.7397 12.1571L7.88471 4.50271H70.1593V65.3457ZM4.62668 68.5411V7.68357L11.113 14.0308V64.0095H15.7397V18.5334L66.9161 68.483L4.62668 68.5411ZM-0.0297852 72.9856H74.7414V-0.0144043H-0.0297852V72.9856Z" fill="#E1B17C"/>
<path d="M34.7524 59.5068H44.586L36.4037 51.5329L33.2498 54.6121L23.6096 64.0239H20.3516V29.4702L33.1308 41.9613L29.8728 45.1566L24.9634 40.3636V56.326L29.9769 51.4167L33.1308 48.3375L36.4037 45.1566L39.6617 48.3375L55.7288 64.0239H30.1405L34.7524 59.5068Z" fill="#E1B17C"/>
<path d="M49.8078 32.7092L30.1853 13.5659H49.8078V32.7092ZM19.0425 9.04883L54.4197 43.559V9.04883H19.0425Z" fill="#E1B17C"/>
<path d="M111.74 32.7963C111.464 32.3283 111.1 31.9146 110.669 31.5763C110.264 31.2353 109.836 30.92 109.39 30.6322C108.898 30.3256 108.368 30.0816 107.813 29.906L106.905 29.5283C106.677 29.4417 106.443 29.369 106.206 29.3105L104.495 28.744C103.167 28.4158 101.894 27.9022 100.716 27.2189C100.41 27.0045 100.162 26.7205 99.9939 26.3915C99.8254 26.0626 99.7415 25.6985 99.7493 25.3308C99.7405 24.9906 99.8156 24.6533 99.9684 24.3474C100.121 24.0415 100.347 23.776 100.627 23.5733C101.327 23.0844 102.178 22.8435 103.037 22.8907C104.068 22.8672 105.08 23.1563 105.936 23.7182C106.791 24.28 107.447 25.087 107.813 26.0279L111.948 23.704C111.186 22.0286 109.93 20.6128 108.34 19.6375C106.751 18.6622 104.899 18.1716 103.022 18.2283C100.899 18.1739 98.8294 18.8819 97.2054 20.2181C96.4129 20.8507 95.7834 21.6558 95.3674 22.569C94.9514 23.4821 94.7606 24.4778 94.8102 25.476C94.7465 26.436 94.9279 27.3963 95.3382 28.2709C95.7484 29.1455 96.3747 29.907 97.1608 30.4869C97.8911 30.9961 98.6739 31.4293 99.4964 31.7796C100.421 32.1627 101.371 32.4877 102.338 32.7528C103.802 33.1043 105.216 33.6312 106.548 34.3214C106.889 34.5104 107.175 34.7799 107.381 35.1053C107.587 35.4306 107.705 35.8012 107.726 36.183C107.747 36.5649 107.669 36.9457 107.499 37.2904C107.33 37.6352 107.074 37.9328 106.756 38.1559C105.872 38.7099 104.829 38.9698 103.781 38.8966C102.533 38.9863 101.29 38.6682 100.248 37.9924C99.2055 37.3166 98.423 36.3215 98.0236 35.1638L93.8135 37.5604C94.4695 39.3583 95.7206 40.8916 97.369 41.9177C99.2499 43.0412 101.429 43.5971 103.632 43.5154C105.978 43.6157 108.286 42.9175 110.163 41.5401C110.99 40.903 111.65 40.0839 112.089 39.1498C112.529 38.2157 112.735 37.1932 112.692 36.166C112.698 35.5129 112.608 34.8624 112.424 34.2343C112.272 33.7242 112.052 33.2358 111.77 32.7818" fill="#46413F"/>
<path d="M130.887 36.4129C130.208 37.1071 129.387 37.6525 128.476 38.0131C127.566 38.3736 126.587 38.5412 125.605 38.5045H120.622V23.3119H125.62C126.606 23.2769 127.588 23.4496 128.499 23.818C129.41 24.1864 130.23 24.742 130.901 25.447C132.294 26.9324 133.027 28.8962 132.94 30.9082C133.024 32.9328 132.293 34.9092 130.901 36.4129H130.887ZM125.62 18.7221H115.697V43.1087H125.62C127.221 43.1445 128.812 42.8499 130.289 42.2443C131.766 41.6386 133.095 40.7354 134.189 39.5938C136.438 37.223 137.688 34.1106 137.688 30.8791C137.688 27.6477 136.438 24.5353 134.189 22.1644C133.097 21.0199 131.768 20.1148 130.291 19.5088C128.814 18.9029 127.222 18.61 125.62 18.6495" fill="#46413F"/>
<path d="M155.597 33.595L144.886 18.7219H141.137V43.1085H146.061V28.1919L156.772 43.1085H160.521V18.7219H155.597V33.595Z" fill="#46413F"/>
<path d="M186.109 34.2632H193.682C193.28 35.6575 192.383 36.8671 191.153 37.6765C189.732 38.5383 188.078 38.9634 186.407 38.8965C185.27 38.9496 184.133 38.7789 183.065 38.3946C181.997 38.0104 181.019 37.4204 180.188 36.6598C178.708 35.1018 177.885 33.0551 177.885 30.9299C177.885 28.8046 178.708 26.7579 180.188 25.2C180.957 24.4264 181.885 23.8205 182.91 23.4225C183.936 23.0244 185.037 22.8431 186.139 22.8906C187.543 22.8717 188.929 23.1962 190.171 23.8347C191.281 24.386 192.209 25.2317 192.849 26.2748L197.059 23.9073C195.98 22.1603 194.438 20.7302 192.596 19.7678C190.629 18.7276 188.421 18.1975 186.184 18.2282C184.459 18.199 182.746 18.5075 181.146 19.1353C179.545 19.7631 178.09 20.6975 176.866 21.8835C175.641 23.0695 174.672 24.4829 174.017 26.0404C173.361 27.5978 173.031 29.2678 173.048 30.9517C173.019 32.6248 173.343 34.2858 173.998 35.8322C174.653 37.3785 175.626 38.7773 176.856 39.9423C178.122 41.1527 179.627 42.0999 181.279 42.7265C182.931 43.3531 184.695 43.6462 186.467 43.588C188.1 43.6611 189.731 43.4134 191.265 42.8595C192.798 42.3056 194.202 41.4569 195.393 40.3635C196.537 39.2668 197.433 37.9477 198.023 36.4916C198.612 35.0354 198.882 33.4746 198.814 31.9103V30.0366H186.288L186.109 34.2632Z" fill="#46413F"/>
<path d="M215.224 28.192C215.049 28.6209 214.803 29.0185 214.495 29.3685C214.188 29.6989 213.813 29.9614 213.394 30.1383C212.99 30.3291 212.548 30.4284 212.1 30.4288H207.027V23.1666H212.1C212.547 23.1624 212.989 23.2568 213.394 23.4425C213.807 23.6297 214.18 23.8909 214.495 24.2123C215.14 24.9084 215.496 25.8151 215.491 26.7541C215.502 27.2509 215.411 27.7447 215.224 28.2066V28.192ZM219.092 31.0243C219.963 29.7851 220.425 28.3153 220.416 26.8122C220.414 25.7486 220.197 24.6958 219.778 23.714C219.359 22.7322 218.745 21.8408 217.973 21.0907C217.2 20.3407 216.284 19.7467 215.276 19.3427C214.268 18.9388 213.189 18.7328 212.1 18.7366H202.102V43.1232H207.027V34.6554H210.776L215.804 43.1232H221.13L215.596 33.9292C217.015 33.297 218.226 32.2911 219.092 31.0243Z" fill="#46413F"/>
<path d="M241.303 36.6598C239.755 38.0941 237.702 38.8938 235.568 38.8938C233.434 38.8938 231.381 38.0941 229.833 36.6598C228.343 35.0978 227.514 33.0426 227.514 30.9081C227.514 28.7735 228.343 26.7183 229.833 25.1564C231.375 23.7121 233.43 22.9057 235.568 22.9057C237.705 22.9057 239.76 23.7121 241.303 25.1564C242.786 26.7215 243.611 28.7755 243.611 30.9081C243.611 33.0406 242.786 35.0947 241.303 36.6598ZM235.545 18.2282C233.802 18.1706 232.064 18.4561 230.436 19.0678C228.808 19.6795 227.323 20.6047 226.068 21.7885C224.814 22.9723 223.817 24.3904 223.136 25.9584C222.454 27.5264 222.103 29.2121 222.103 30.9153C222.103 32.6185 222.454 34.3043 223.136 35.8723C223.817 37.4403 224.814 38.8584 226.068 40.0422C227.323 41.226 228.808 42.1512 230.436 42.7629C232.064 43.3745 233.802 43.6601 235.545 43.6025C237.253 43.6273 238.949 43.3161 240.531 42.6872C242.113 42.0584 243.55 41.1248 244.754 39.9423C246.581 38.1657 247.827 35.8992 248.333 33.4303C248.839 30.9615 248.582 28.4015 247.596 26.0753C246.609 23.749 244.937 21.7613 242.792 20.3642C240.646 18.9671 238.124 18.2237 235.545 18.2282Z" fill="#46413F"/>
<path d="M265.775 34.7424C265.806 35.2955 265.723 35.8489 265.531 36.3703C265.34 36.8916 265.043 37.3702 264.659 37.778C263.642 38.5018 262.415 38.8917 261.156 38.8917C259.897 38.8917 258.67 38.5018 257.652 37.778C257.269 37.3702 256.972 36.8916 256.781 36.3703C256.589 35.8489 256.506 35.2955 256.537 34.7424V18.7655H251.612V35.1782C251.562 36.333 251.775 37.4845 252.235 38.5494C252.696 39.6143 253.393 40.5662 254.275 41.3365C256.242 42.8252 258.66 43.6332 261.149 43.6332C263.637 43.6332 266.055 42.8252 268.022 41.3365C268.909 40.5689 269.609 39.6178 270.073 38.5525C270.536 37.4872 270.75 36.3344 270.699 35.1782V18.7219H265.775V34.7424Z" fill="#46413F"/>
<path d="M287.808 28.3664C287.639 28.8014 287.387 29.2009 287.064 29.5429C286.739 29.878 286.343 30.1406 285.904 30.3127C285.434 30.5103 284.927 30.6093 284.416 30.6032H280.027V23.2247H284.416C284.903 23.2086 285.389 23.2934 285.84 23.4737C286.291 23.6539 286.698 23.9255 287.034 24.2705C287.374 24.6238 287.638 25.0394 287.812 25.4932C287.985 25.947 288.065 26.4299 288.046 26.9139C288.051 27.4102 287.96 27.903 287.778 28.3664H287.808ZM290.516 21.1041C289.714 20.3334 288.763 19.7268 287.718 19.3203C286.673 18.9137 285.556 18.7153 284.431 18.7367H275.192V43.1233H280.117V35.1057H284.505C285.63 35.1296 286.749 34.9324 287.794 34.5256C288.839 34.1189 289.79 33.5111 290.59 32.7383C291.394 31.992 292.03 31.0894 292.455 30.0887C292.88 29.0881 293.086 28.0116 293.06 26.9285C293.082 25.8473 292.875 24.7732 292.453 23.7735C292.031 22.7739 291.401 21.8701 290.605 21.1187" fill="#46413F"/>
<path d="M98.723 50.516C99.2986 50.5078 99.8669 50.6428 100.374 50.9082C100.85 51.1524 101.242 51.5257 101.505 51.983L102.889 51.2277C102.683 50.8966 102.433 50.5938 102.145 50.3272C101.847 50.058 101.517 49.824 101.163 49.63C100.796 49.4377 100.406 49.2913 100.002 49.1943C99.5836 49.0951 99.1539 49.0463 98.723 49.0491C98.0526 49.0254 97.3842 49.1342 96.7579 49.3688C96.1316 49.6034 95.5603 49.959 95.0781 50.4144C94.6018 50.8426 94.2231 51.364 93.9668 51.9445C93.7104 52.5251 93.5822 53.1519 93.5905 53.784C93.5829 54.4182 93.7114 55.047 93.9676 55.6298C94.2238 56.2126 94.6021 56.7367 95.0781 57.1682C95.8936 57.8823 96.9117 58.3382 97.998 58.4757C99.0844 58.6131 100.188 58.4256 101.163 57.938C101.882 57.5706 102.481 57.0116 102.889 56.3258L101.505 55.5851C101.248 56.0419 100.86 56.4155 100.389 56.6599C99.8797 56.9353 99.3052 57.0755 98.723 57.0666C98.2595 57.0816 97.7976 57.0073 97.3636 56.8478C96.9296 56.6882 96.5321 56.4467 96.1939 56.137C95.859 55.8288 95.5954 55.4542 95.421 55.0383C95.2465 54.6225 95.1651 54.175 95.1823 53.726C95.1705 53.2901 95.2502 52.8565 95.4165 52.4518C95.5828 52.0472 95.8322 51.68 96.1493 51.373C96.8348 50.7528 97.7444 50.4237 98.6783 50.4579" fill="#46413F"/>
<path d="M103.439 53.1884H105.715V58.3591H107.218V53.1884H109.479V51.8376H103.439V53.1884Z" fill="#46413F"/>
<path d="M115.757 56.6308C115.334 57.0161 114.773 57.2246 114.195 57.2118C113.612 57.2238 113.047 57.0156 112.618 56.6308C112.42 56.4415 112.263 56.2155 112.156 55.9661C112.048 55.7167 111.993 55.4489 111.993 55.1784C111.99 54.9074 112.043 54.6386 112.151 54.3887C112.258 54.1388 112.417 53.9132 112.618 53.7259C112.828 53.5301 113.075 53.3767 113.345 53.2745C113.616 53.1723 113.905 53.1233 114.195 53.1304C114.483 53.1236 114.769 53.1728 115.037 53.275C115.305 53.3773 115.55 53.5305 115.757 53.7259C115.958 53.9132 116.117 54.1388 116.224 54.3887C116.332 54.6386 116.385 54.9074 116.382 55.1784C116.382 55.4489 116.327 55.7167 116.219 55.9661C116.112 56.2155 115.955 56.4415 115.757 56.6308ZM114.433 51.707C113.963 51.6804 113.494 51.7687 113.068 51.964C112.642 52.1593 112.272 52.4554 111.993 52.8254V51.8668H110.505V60.9881H111.993V57.4442C112.276 57.8096 112.646 58.1014 113.072 58.2939C113.497 58.4864 113.965 58.5737 114.433 58.548C114.887 58.5579 115.339 58.4752 115.759 58.3051C116.179 58.1351 116.559 57.8814 116.873 57.5604C117.522 56.9094 117.886 56.0364 117.886 55.1275C117.886 54.2186 117.522 53.3456 116.873 52.6947C116.557 52.3745 116.178 52.1204 115.759 51.9481C115.339 51.7758 114.888 51.6888 114.433 51.6925" fill="#46413F"/>
<path d="M124.058 56.6309C123.661 57.0117 123.127 57.2255 122.571 57.2264C122.015 57.2225 121.482 57.0091 121.083 56.6309C120.701 56.2393 120.488 55.7192 120.488 55.1784C120.488 54.6377 120.701 54.1176 121.083 53.726C121.482 53.3477 122.015 53.1344 122.571 53.1305C123.127 53.1313 123.661 53.3451 124.058 53.726C124.44 54.1176 124.653 54.6377 124.653 55.1784C124.653 55.7192 124.44 56.2393 124.058 56.6309ZM122.571 51.7216C122.091 51.7086 121.614 51.7893 121.167 51.9589C120.72 52.1285 120.312 52.3836 119.967 52.7093C119.629 53.024 119.359 53.4026 119.175 53.822C118.991 54.2414 118.896 54.693 118.896 55.1494C118.896 55.6057 118.991 56.0573 119.175 56.4768C119.359 56.8962 119.629 57.2748 119.967 57.5895C120.312 57.9152 120.72 58.1703 121.167 58.3399C121.614 58.5095 122.091 58.5902 122.571 58.5772C123.048 58.5915 123.523 58.5114 123.968 58.3417C124.413 58.1719 124.818 57.9161 125.159 57.5895C125.498 57.2748 125.767 56.8962 125.951 56.4768C126.135 56.0573 126.23 55.6057 126.23 55.1494C126.23 54.693 126.135 54.2414 125.951 53.822C125.767 53.4026 125.498 53.024 125.159 52.7093C124.818 52.3827 124.413 52.1268 123.968 51.9571C123.523 51.7874 123.048 51.7073 122.571 51.7216Z" fill="#46413F"/>
<path d="M129.012 55.9771V51.8376H127.54V58.3591H128.685L132.241 54.2051V58.3591H133.713V51.8376H132.568L129.012 55.9771Z" fill="#46413F"/>
<path d="M134.725 53.1884H136.986V58.3591H138.489V53.1884H140.75V51.8376H134.725V53.1884Z" fill="#46413F"/>
<path d="M142.669 54.5393C142.743 54.0755 142.993 53.6557 143.368 53.3629C143.768 53.0751 144.256 52.9267 144.752 52.9417C145.219 52.9262 145.676 53.07 146.046 53.3483C146.424 53.6456 146.674 54.0707 146.746 54.5393H142.669ZM144.767 51.6344C144.282 51.6132 143.798 51.69 143.345 51.86C142.892 52.0299 142.479 52.2894 142.134 52.6221C141.47 53.275 141.098 54.1572 141.098 55.0767C141.098 55.9962 141.47 56.8785 142.134 57.5314C142.883 58.1877 143.865 58.5318 144.871 58.49C145.453 58.515 146.031 58.3947 146.552 58.1405C147.072 57.8864 147.518 57.5067 147.846 57.0375L146.612 56.3694C146.405 56.6366 146.134 56.8495 145.822 56.9889C145.511 57.1284 145.168 57.19 144.826 57.1683C144.301 57.188 143.782 57.0512 143.339 56.7761C142.946 56.5015 142.675 56.0913 142.58 55.6287H148.114V55.2946C148.114 55.2075 148.114 55.1203 148.114 55.0477C148.121 54.5969 148.037 54.1491 147.866 53.7303C147.695 53.3114 147.44 52.9299 147.117 52.6076C146.797 52.2779 146.408 52.0183 145.978 51.8455C145.547 51.6728 145.084 51.591 144.618 51.6054" fill="#46413F"/>
<path d="M149.84 55.5415C149.886 55.9806 149.776 56.4218 149.528 56.7906C149.403 56.9112 149.248 56.9976 149.078 57.041C148.908 57.0843 148.73 57.0831 148.561 57.0375V58.3593C148.922 58.4185 149.293 58.4012 149.647 58.3085C150.001 58.2158 150.331 58.0498 150.614 57.8219C150.884 57.5225 151.088 57.172 151.214 56.7921C151.339 56.4123 151.383 56.0113 151.343 55.6141V53.1885H153.663V58.3593H155.151V51.8232H149.84V55.5415Z" fill="#46413F"/>
<path d="M160.641 56.8342C160.434 57.0068 160.168 57.0952 159.897 57.0811H158.409V55.3091H159.897C160.167 55.302 160.431 55.3895 160.641 55.556C160.735 55.6351 160.811 55.7332 160.863 55.8435C160.914 55.9538 160.941 56.0737 160.941 56.1951C160.941 56.3165 160.914 56.4364 160.863 56.5467C160.811 56.657 160.735 56.7551 160.641 56.8342ZM159.882 54.0455H158.394V51.8232H156.906V58.3593H159.882C160.545 58.3905 161.194 58.1721 161.697 57.7492C161.922 57.5543 162.102 57.3151 162.226 57.0472C162.349 56.7793 162.413 56.4889 162.413 56.1951C162.413 55.9013 162.349 55.6109 162.226 55.343C162.102 55.0751 161.922 54.8359 161.697 54.641C161.189 54.2284 160.542 54.016 159.882 54.0455Z" fill="#46413F"/>
<path d="M168.347 54.4375H165.178V51.8376H163.675V58.3591H165.178V55.7593H168.347V58.3591H169.849V51.8376H168.347V54.4375Z" fill="#46413F"/>
<path d="M176.455 56.6308C176.024 57.0045 175.468 57.2109 174.893 57.2109C174.317 57.2109 173.761 57.0045 173.331 56.6308C173.133 56.4415 172.975 56.2155 172.868 55.9661C172.761 55.7167 172.706 55.4489 172.706 55.1784C172.702 54.9074 172.756 54.6386 172.863 54.3887C172.971 54.1388 173.13 53.9132 173.331 53.7259C173.756 53.3431 174.314 53.1307 174.893 53.1307C175.471 53.1307 176.029 53.3431 176.455 53.7259C176.655 53.9132 176.814 54.1388 176.922 54.3887C177.029 54.6386 177.083 54.9074 177.079 55.1784C177.08 55.4489 177.024 55.7167 176.917 55.9661C176.81 56.2155 176.653 56.4415 176.455 56.6308ZM177.079 52.8109C176.798 52.4476 176.43 52.157 176.008 51.9646C175.585 51.7722 175.12 51.6837 174.655 51.707C174.2 51.6971 173.748 51.7798 173.328 51.9499C172.908 52.1199 172.529 52.3736 172.215 52.6947C171.884 53.0123 171.624 53.3927 171.45 53.8124C171.276 54.2321 171.192 54.6822 171.203 55.1348C171.195 55.587 171.281 56.0361 171.455 56.4553C171.629 56.8745 171.887 57.2553 172.215 57.5749C172.529 57.896 172.908 58.1496 173.328 58.3197C173.748 58.4897 174.2 58.5724 174.655 58.5625C175.123 58.5907 175.59 58.503 176.014 58.3075C176.438 58.112 176.805 57.815 177.079 57.4442V58.4028H178.567V51.8668H177.079V52.8109Z" fill="#46413F"/>
<path d="M184.235 53.1013V54.9459H182.747C182.473 54.9515 182.205 54.8643 181.989 54.699C181.888 54.6186 181.809 54.5161 181.757 54.4C181.706 54.2838 181.683 54.1573 181.691 54.0309C181.683 53.9023 181.706 53.7737 181.757 53.6552C181.809 53.5367 181.888 53.4316 181.989 53.3482C182.205 53.1829 182.473 53.0957 182.747 53.1013H184.235ZM180.828 52.4622C180.612 52.6584 180.441 52.897 180.325 53.1623C180.21 53.4276 180.153 53.7137 180.159 54.0018C180.161 54.4527 180.312 54.8909 180.59 55.2509C180.883 55.6251 181.289 55.8995 181.751 56.0352L179.876 58.3592H181.647L183.402 56.166H184.235V58.3592H185.723V51.8232H182.628C181.971 51.7998 181.33 52.0293 180.843 52.4622" fill="#46413F"/>
<path d="M196.94 51.8376H195.11L192.418 54.7135V51.8376H190.915V58.3591H192.418V55.338L195.259 58.3591H197.059L193.89 55.033L196.94 51.8376Z" fill="#46413F"/>
<path d="M202.296 56.6309C201.897 57.0091 201.364 57.2225 200.808 57.2264C200.252 57.2255 199.717 57.0117 199.32 56.6309C198.938 56.2393 198.725 55.7192 198.725 55.1784C198.725 54.6377 198.938 54.1176 199.32 53.726C199.717 53.3451 200.252 53.1313 200.808 53.1305C201.364 53.1344 201.897 53.3477 202.296 53.726C202.678 54.1176 202.891 54.6377 202.891 55.1784C202.891 55.7192 202.678 56.2393 202.296 56.6309ZM200.808 51.7216C200.331 51.7073 199.855 51.7874 199.41 51.9571C198.966 52.1268 198.561 52.3827 198.22 52.7093C197.881 53.024 197.612 53.4026 197.428 53.822C197.243 54.2414 197.148 54.693 197.148 55.1494C197.148 55.6057 197.243 56.0573 197.428 56.4768C197.612 56.8962 197.881 57.2748 198.22 57.5895C198.561 57.9161 198.966 58.1719 199.41 58.3417C199.855 58.5114 200.331 58.5915 200.808 58.5772C201.288 58.5902 201.765 58.5095 202.212 58.3399C202.659 58.1703 203.067 57.9152 203.412 57.5895C203.746 57.2727 204.012 56.8934 204.194 56.4742C204.376 56.0551 204.47 55.6046 204.47 55.1494C204.47 54.6942 204.376 54.2437 204.194 53.8245C204.012 53.4054 203.746 53.0261 203.412 52.7093C203.067 52.3836 202.659 52.1285 202.212 51.9589C201.765 51.7893 201.288 51.7086 200.808 51.7216Z" fill="#46413F"/>
<path d="M209.362 54.8442L207.354 51.8376H205.807V58.3591H207.279V54.0744L209.258 57.0519H209.437L211.43 54.0599V58.3591H212.903V51.8376H211.371L209.362 54.8442Z" fill="#46413F"/>
<path d="M214.629 58.3591H216.131V53.1594H219.3V58.3591H220.803V51.8376H214.629V58.3591Z" fill="#46413F"/>
<path d="M227.423 56.6309C226.99 57.0056 226.432 57.2125 225.853 57.2125C225.275 57.2125 224.716 57.0056 224.284 56.6309C224.086 56.4416 223.929 56.2156 223.821 55.9662C223.714 55.7168 223.659 55.449 223.659 55.1785C223.655 54.9075 223.709 54.6387 223.817 54.3888C223.924 54.1389 224.083 53.9133 224.284 53.726C224.712 53.3422 225.272 53.1293 225.853 53.1293C226.434 53.1293 226.994 53.3422 227.423 53.726C227.623 53.9133 227.782 54.1389 227.89 54.3888C227.997 54.6387 228.051 54.9075 228.047 55.1785C228.048 55.449 227.992 55.7168 227.885 55.9662C227.778 56.2156 227.621 56.4416 227.423 56.6309ZM228.047 52.811C227.764 52.4465 227.393 52.1554 226.968 51.963C226.543 51.7705 226.076 51.6827 225.608 51.7071C225.153 51.699 224.702 51.7825 224.282 51.9525C223.862 52.1224 223.483 52.3751 223.168 52.6948C222.837 53.0124 222.577 53.3928 222.403 53.8125C222.229 54.2322 222.145 54.6823 222.156 55.1349C222.149 55.5871 222.234 56.0362 222.408 56.4554C222.582 56.8746 222.84 57.2554 223.168 57.575C223.483 57.8947 223.862 58.1474 224.282 58.3173C224.702 58.4873 225.153 58.5708 225.608 58.5626C226.078 58.5893 226.547 58.501 226.973 58.3057C227.399 58.1104 227.768 57.8143 228.047 57.4443V58.4029H229.535V51.8669H228.047V52.811Z" fill="#46413F"/>
<path d="M235.962 54.4375H232.778V51.8376H231.291V58.3591H232.778V55.7593H235.962V58.3591H237.465V51.8376H235.962V54.4375Z" fill="#46413F"/>
<path d="M240.663 55.9771V51.8376H239.19V58.3591H240.351L243.906 54.2051V58.3591H245.379V51.8376H244.219L240.663 55.9771Z" fill="#46413F"/>
<path d="M251.018 54.9461H249.53C249.255 54.9517 248.987 54.8645 248.771 54.6992C248.669 54.6196 248.588 54.5176 248.533 54.4015C248.479 54.2855 248.454 54.1586 248.459 54.0311C248.452 53.9034 248.477 53.7761 248.532 53.6599C248.586 53.5436 248.668 53.4418 248.771 53.3629C248.983 53.1879 249.253 53.0949 249.53 53.1015H251.018V54.9461ZM249.396 51.8234C248.738 51.7968 248.096 52.0267 247.611 52.4624C247.393 52.6579 247.219 52.896 247.101 53.1612C246.983 53.4264 246.924 53.7129 246.926 54.002C246.927 54.4555 247.085 54.8955 247.373 55.2511C247.659 55.6314 248.068 55.9074 248.533 56.0354L246.659 58.3594H248.414L250.185 56.1662H251.018V58.3594H252.505V51.8234H249.396Z" fill="#46413F"/>
</g>
<defs>
<clipPath id="clip0_12_1034">
<rect width="293" height="73" fill="white"/>
</clipPath>
</defs>
</svg>
